<svg viewBox="-191 0 512 512" xmlns="http://www.w3.org/2000/svg"><path d="m122.125 160.953125c5.226562-13.53125 7.875-30.566406 7.875-50.953125 0-27.878906-24.730469-52.660156-55-57.238281v-22.761719c0-5.515625 4.484375-10 10-10s10 4.484375 10 10c0 5.523438 4.476562 10 10 10s10-4.476562 10-10c0-16.542969-13.457031-30-30-30s-30 13.457031-30 30v22.761719c-30.269531 4.578125-55 29.359375-55 57.238281 0 9.023438 1.84375 17.449219 5.300781 25.035156-2.910156 6.550782-5.300781 16.269532-5.300781 30.550782 0 7.960937 2.75 16.769531 7.785156 25.511718-3.992187 6.5625-7.785156 17.316406-7.785156 34.488282 0 7.957031 2.753906 16.769531 7.789062 25.507812-3.992187 6.566406-7.789062 17.316406-7.789062 34.492188 0 7.960937 2.746094 16.773437 7.78125 25.519531-3.988281 6.566406-7.78125 17.316406-7.78125 34.480469 0 12.804687 7.078125 27.820312 19.421875 41.195312.921875.996094 1.886719 1.996094 2.894531 2.996094-4.652344 12.183594-7.316406 26.613281-7.316406 42.222656 0 43.035156 42.042969 76.46875 43.832031 77.871094 1.8125 1.417968 3.988281 2.128906 6.167969 2.128906s4.355469-.710938 6.167969-2.128906c1.789062-1.402344 43.832031-34.835938 43.832031-77.871094 0-25.695312-7.207031-48.199219-18.632812-62.734375 16.566406-11.359375 33.632812-33.410156 33.632812-53.679687 0-17.121094-3.773438-27.859376-7.75-34.429688 4.726562-8.222656 7.75-17.054688 7.75-25.570312 0-17.121094-3.773438-27.859376-7.75-34.429688 4.726562-8.222656 7.75-17.054688 7.75-25.570312 0-17.296876-3.847656-28.078126-7.875-34.632813zm-57.640625 89.867187c-.273437.910157-.597656 1.820313-.96875 2.707032-2.289063 5.496094-7.824219 9.875-12.933594 12.632812-.933593.507813-6.003906-3.617187-6.761719-4.175781-10.867187-8.054687-23.820312-21.875-23.820312-36.398437 0-7.0625.769531-12.378907 1.789062-16.324219 7.1875 7.285156 15.515626 13.445312 23.265626 16.199219 2.253906 6.835937 7.460937 16.867187 19.457031 25.023437-.007813.121094-.019531.234375-.027344.335937zm.027344 59.664063c-.183594 2.445313-1.949219 4.933594-3.410157 6.800781-2.910156 3.730469-6.363281 6.628906-10.519531 8.875-.265625.144532-1.945312-1.007812-2.21875-1.164062-8.464843-4.890625-15.394531-12.335938-20.984375-20.261719-3.441406-4.878906-6.351562-10.515625-7.183594-16.488281-.851562-6.09375.0625-13.058594 1.59375-18.988282 7.1875 7.285157 15.515626 13.445313 23.265626 16.199219 2.253906 6.839844 7.460937 16.871094 19.457031 25.027344zm-.992188-116.957031c-2.285156 5.484375-7.851562 9.886718-12.9375 12.632812-.535156.292969-3.691406-2.054687-4.183593-2.375-9.617188-6.292968-18.265626-15.847656-23.222657-26.25-1.765625-3.707031-3.175781-7.796875-3.175781-11.949218 0-6.78125.617188-11.914063 1.453125-15.757813 7.957031 7.542969 16.894531 13.5 24.5 17.84375 2.972656 6.601563 9.085937 14.734375 18.960937 21.664063-.457031 1.40625-.824218 2.816406-1.394531 4.191406zm46.480469-83.527344c0 19.429688-2.070312 34.175781-6.839844 44.378906-1.449218 3.101563-3.925781 5.742188-6.300781 8.160156-3.625 3.6875-7.539063 7.25-11.761719 10.234376-.488281.34375-3.996094 3.105468-4.507812 2.816406-5.273438-2.996094-9.449219-7.503906-13.390625-12.050782 4.417969-7.589843 5.675781-18.425781 6.359375-24.398437 1.425781-12.425781 1.441406-24.628906 1.441406-25.140625v-40.953125c20.578125 4.320313 35 21.425781 35 36.953125zm-55-36.953125v40.953125c0 13.738281-1.589844 28.617188-3.613281 35.851562-20.023438-6.542968-31.386719-20.839843-31.386719-39.851562 0-15.527344 14.421875-32.632812 35-36.953125zm-35 272.539063c0-7.0625.769531-12.378907 1.789062-16.324219 7.1875 7.285156 15.515626 13.445312 23.265626 16.199219.964843 2.921874 2.476562 6.433593 4.824218 10.128906-6.597656 3.238281-12.5625 8.574218-17.628906 15.523437-7.703125-8.964843-12.25-18.390625-12.25-25.527343zm44.984375 143.054687c-10.332031-9.871094-29.984375-31.894531-29.984375-56.640625 0-27.085938 9.28125-47.867188 20-56.117188v16.117188c0 5.511719 4.488281 10 10 10s10-4.488281 10-10v-16.117188c10.71875 8.25 20 29.03125 20 56.117188 0 24.636719-19.6875 46.742188-30.015625 56.640625zm31.257813-145.816406c-6.148438 6.753906-12.109376 10.953125-15.894532 12.898437-1.632812-.816406-3.300781-1.519531-5.003906-2.074218-.332031-.230469-.628906-.46875-.945312-.703126-3.882813-3.339843-7.390626-7.125-8.882813-12.128906-.007813-.097656-.019531-.210937-.027344-.332031 11.996094-8.15625 17.203125-18.1875 19.457031-25.023437 7.75-2.753907 16.078126-8.914063 23.265626-16.199219 1.019531 3.941406 1.789062 9.261719 1.789062 16.324219 0 7.589843-5.144531 17.773437-13.757812 27.238281zm5.730468-67.148438c-5.398437 7.679688-12.402344 14.832031-20.613281 19.488281-.242187.136719-1.703125 1.125-1.933594 1.003907-4.953125-2.675781-9.46875-6.53125-12.304687-11.441407-.699219-1.210937-1.527344-2.832031-1.632813-4.242187 11.996094-8.15625 17.203125-18.1875 19.457031-25.023437 7.75-2.753907 16.078126-8.914063 23.265626-16.199219 1.019531 3.941406 1.789062 9.261719 1.789062 16.324219 0 7.347656-3.921875 14.242187-8.027344 20.089843zm.042969-59.96875c-5.503906 7.980469-12.878906 15.289063-21.269531 19.796875-.167969.089844-1.167969.746094-1.316406.664063-5.257813-2.835938-10.265626-7.214844-12.949219-12.640625-.132813-.273438-1.277344-2.851563-.992188-3.042969 11.996094-8.15625 17.203125-18.1875 19.457031-25.023437 7.753907-2.753907 16.078126-8.914063 23.265626-16.199219 1.019531 3.945312 1.789062 9.261719 1.789062 16.324219 0 7.3125-3.945312 14.265624-7.984375 20.121093zm0 0"/><path d="m65 422c-5.511719 0-10 4.488281-10 10s4.488281 10 10 10 10-4.488281 10-10-4.488281-10-10-10zm0 0"/></svg>